<?xml version="1.0" encoding="UTF-8"?>
<svg xmlns="http://www.w3.org/2000/svg" version="1.1" viewBox="0 0 707 553">
  <!-- Generator: Adobe Illustrator 29.8.1, SVG Export Plug-In . SVG Version: 2.1.1 Build 2)  -->
  <defs>
    <style>
      .st0 {
        isolation: isolate;
      }

      .st1 {
        fill: #d76735;
        fill-rule: evenodd;
      }
    </style>
  </defs>
  <g id="Shape_1" class="st0">
    <g id="Shape_11" data-name="Shape_1">
      <path class="st1" d="M563.7,51.5C444.1,7.7,388.1,8.4,355.8,21.5c-32.4,13.1-12.4,30.4-64.6,53.8-63.4,28.5-54.9-12.3-85.6-1.3-30.7,11-76.8,44.6-138.7,145.9C4.8,321.3-21.6,324.6,22.6,378.8s66.5,93.7,103.2,75c36.7-18.7,69-10,102.7,44,33.7,54,65.4,54.9,200,1.9,134.6-53,171.6-86,146-152.1-25.6-66,8.6-58.2,43.6-49.8,35.1,8.5,63.1-41.7,83-102.1,19.9-60.4-17.7-100.6-137.4-144.3Z"/>
    </g>
  </g>
</svg>